


<svg version="1.1" id="레이어_1" xmlns="http://www.w3.org/2000/svg" xmlns:xlink="http://www.w3.org/1999/xlink" x="0px" y="0px" width="1000px" height="222.037px" viewBox="0 0 1000 222.037" enable-background="new 0 0 1000 222.037" xml:space="preserve">
<g>
	<g>
		<polygon fill="#1CEBC8" points="191.582,-0.056 127.468,110.956 191.555,221.981 255.669,110.956 		"></polygon>
		<polygon fill="#FF5000" points="191.555,221.981 63.4,221.981 -0.714,110.956 127.468,110.956 		"></polygon>
		<polygon fill="#FF5000" points="191.555,221.981 255.669,110.956 383.824,110.956 319.757,221.981 		"></polygon>
	</g>
	<g>
		<g>
			<path d="M522.121,38.828c-0.558-3.826-3.705-10.327-13.633-10.327c-6.819,0-11.202,4.319-11.202,8.8
				c0,3.963,2.457,6.846,8.088,7.873l10.987,2.067c15.619,2.91,23.715,12.938,23.715,24.634c0,12.864-10.74,25.945-30.279,25.945
				c-22.68,0-32.433-14.706-33.587-26.274l16.8-4.051c0.698,7.544,5.779,14.122,17.001,14.122c7.176,0,11.552-3.453,11.552-8.531
				c0-4.165-3.362-7.159-8.766-8.259l-11.216-2.094c-13.921-2.655-22.332-11.884-22.332-24.049
				c0-15.475,13.632-26.358,29.378-26.358c20.452,0,28.198,12.239,29.91,21.864L522.121,38.828z"></path>
			<path d="M548.667,96.092V38.583h16.761v6.591c2.967-5.091,10.323-8.347,16.586-8.347c8.201,0,14.062,3.353,17.001,9.045
				c4.524-6.474,10.028-9.045,17.788-9.045c10.88,0,21.271,6.363,21.271,21.996v37.269h-16.976V62.746
				c0-5.45-2.926-9.686-9.148-9.686c-6.229,0-9.611,4.763-9.611,9.844v33.188h-17.331V62.746c0-5.45-2.894-9.686-9.256-9.686
				c-6.128,0-9.498,4.763-9.498,9.914v33.118H548.667z"></path>
			<path d="M657.564,10.714c5.82,0,10.418,4.621,10.418,10.253c0,5.692-4.598,10.343-10.418,10.343
				c-5.517,0-10.195-4.651-10.195-10.343C647.369,15.335,652.048,10.714,657.564,10.714 M648.906,38.569h17.619v57.523h-17.619
				V38.569z"></path>
			<rect x="677.533" y="12.325" width="17.619" height="83.767"></rect>
			<path d="M759.395,79.547c-2.839,9.958-11.928,18.273-26.547,18.273c-15.86,0-29.956-11.34-29.956-30.681
				c0-18.499,13.767-30.313,28.701-30.313c17.801,0,28.782,11.001,28.782,29.5c0,2.467-0.215,5.118-0.343,5.478h-39.991
				c0.356,6.487,6.242,11.095,13.049,11.095c6.35,0,9.914-2.993,11.552-7.518L759.395,79.547z M743.359,60.464
				c-0.229-4.42-3.168-9.756-11.512-9.756c-7.416,0-11.095,5.45-11.45,9.756H743.359z"></path>
			<path d="M780.975,94.968c1.094,5.531,5.745,9.555,12.31,9.555c8.813,0,14.243-4.252,14.243-14.689v-2.641
				c-2.121,3.125-7.102,6.46-15.385,6.46c-15.263,0-26.7-12.035-26.7-28.026c0-15.159,10.981-28.054,26.7-28.054
				c9.384,0,14.364,4.095,15.941,7.129v-6.118h16.787V88.92c0,16.532-9.27,30.882-30.734,30.882
				c-16.559,0-27.097-10.176-28.694-20.485L780.975,94.968z M807.662,65.626c0-7.803-5.639-12.692-12.311-12.692
				c-6.564,0-12.337,4.89-12.337,12.692c0,7.903,5.343,12.783,12.337,12.783C802.52,78.409,807.662,73.529,807.662,65.626"></path>
			<path d="M876.582,88.719c-2.497,5.521-8.35,8.958-15.492,8.958c-16.848,0-28.54-12.78-28.54-30.537
				c0-17.116,10.941-30.313,27.956-30.313c10.297,0,14.801,5.706,15.975,8.347v-6.591h17.002v47.213
				c0,5.319,0.322,9.028,0.471,10.296h-16.936c-0.154-1.269-0.436-4.393-0.436-6.83V88.719z M863.372,82.557
				c7.075,0,13.108-5.578,13.108-15.277c0-9.984-5.893-15.189-13.108-15.189c-7.478,0-13.136,5.205-13.136,15.189
				C850.236,76.751,856.109,82.557,863.372,82.557"></path>
			<path d="M926.561,38.583h11.176v15.404h-11.176v21.509c0,4.752,2.551,6.007,6.356,6.007c1.825,0,3.563-0.359,4.61-0.587v14.605
				c-0.684,0.343-3.57,1.614-9.162,1.614c-11.873,0-19.196-7.061-19.196-18.515V53.987l-10.128,0.017V38.583h2.859
				c6.054,0,8.913-4.064,8.913-9.37v-7.431h15.747V38.583z"></path>
			<path d="M998.26,79.563c-2.8,9.941-11.895,18.257-26.5,18.257c-15.881,0-29.956-11.326-29.956-30.681
				c0-18.499,13.753-30.313,28.701-30.313c17.8,0,28.781,11.001,28.781,29.5c0,2.467-0.255,5.118-0.329,5.478H958.92
				c0.314,6.487,6.275,11.095,13.055,11.095c6.356,0,9.934-2.993,11.578-7.518L998.26,79.563z M982.271,60.464
				c-0.242-4.42-3.209-9.756-11.559-9.756c-7.356,0-11.075,5.45-11.479,9.756H982.271z"></path>
		</g>
		<g>
			<path d="M497.722,182.95h-8.927v24.426h-8.343v-59.711h22.485c11.283,0,18.277,7.92,18.277,17.773
				c0,8.585-5.478,15.243-14.484,16.928l14.229,25.01h-9.599L497.722,182.95z M501.428,175.54c6.732,0,11.275-3.953,11.275-10.102
				c0-6.316-4.543-10.363-11.275-10.363h-12.633v20.465H501.428z"></path>
			<path d="M542.936,182.95v24.426h-8.256v-59.711h21.733c11.028,0,18.438,7.665,18.438,17.687c0,10.108-7.41,17.599-18.438,17.599
				H542.936z M554.896,175.54c7.154,0,11.531-3.953,11.531-10.102c0-6.316-4.377-10.363-11.531-10.363h-11.961v20.465H554.896z"></path>
			<path d="M583.262,177.48c0-19.962,14.995-31.077,29.99-31.077c13.303,0,23.492,7.41,26.525,18.948l-7.665,2.61
				c-2.53-9.182-9.263-13.98-18.86-13.98c-11.123,0-21.56,7.665-21.56,23.499s10.437,23.667,21.56,23.667
				c11.115,0,17.935-6.739,19.028-14.908h-24.09v-7.41h32.427c0.087,0.672,0.087,1.43,0.087,2.102
				c0,15.162-9.351,27.707-27.452,27.707C598.257,208.638,583.262,197.436,583.262,177.48z"></path>
		</g>
	</g>
</g>
</svg>
