


<svg xmlns="http://www.w3.org/2000/svg" width="1000" height="190.28908" viewBox="0 0 264.58333 50.347321" version="1.1" id="svg8">
  <defs id="defs2">
    <clipPath clipPathUnits="userSpaceOnUse" id="clipPath183">
      <path d="m 36.232,491.347 h 73.701 v 67.824 H 36.232 Z" id="path181"></path>
    </clipPath>
    <clipPath clipPathUnits="userSpaceOnUse" id="clipPath159">
      <path d="m 36.232,491.347 h 73.701 v 67.824 H 36.232 Z" id="path157"></path>
    </clipPath>
    <clipPath clipPathUnits="userSpaceOnUse" id="clipPath1526">
      <path d="M 0,0 H 540 V 792 H 0 Z" id="path1524"></path>
    </clipPath>
    <clipPath clipPathUnits="userSpaceOnUse" id="clipPath1498">
      <path d="M 0,0 H 540 V 792 H 0 Z" id="path1496"></path>
    </clipPath>
    <clipPath clipPathUnits="userSpaceOnUse" id="clipPath1482">
      <path d="M 0,0 H 540 V 792 H 0 Z" id="path1480"></path>
    </clipPath>
    <clipPath clipPathUnits="userSpaceOnUse" id="clipPath1446">
      <path d="M 0,0 H 540 V 792 H 0 Z" id="path1444"></path>
    </clipPath>
    <clipPath clipPathUnits="userSpaceOnUse" id="clipPath3850">
      <path d="m 0.14136,0.11528 h 30.24 v 43.92 h -30.24 z" id="path3848" style="clip-rule:evenodd"></path>
    </clipPath>
    <clipPath clipPathUnits="userSpaceOnUse" id="clipPath4775">
      <path d="M 0,0 H 595.276 V 841.89 H 0 Z" id="path4773"></path>
    </clipPath>
  </defs>
  
  
  <g id="layer1" transform="translate(-265.20839,1424.3082)">
    <path class="cls-1" d="m 449.62949,-1392.8108 h -13.93314 v -12.7844 h 13.71368 v 2.8264 h -9.97981 v 2.179 h 9.45218 v 2.6708 h -9.45218 v 2.2024 h 10.19927 v 2.9089 z m 0,0" id="path6" style="stroke-width:0.15564276"></path>
    <path class="cls-1" d="m 529.79173,-1392.8108 h -13.71524 v -12.5837 h 13.4989 v 2.7814 h -9.82417 v 2.1416 h 9.30432 v 2.6288 h -9.30432 v 2.1681 h 10.04051 z m 0,0" id="path8" style="stroke-width:0.15564276"></path>
    <path class="cls-1" d="m 468.5214,-1392.8108 h -5.63737 l -7.42105,-9.5627 h -0.0731 v 9.5627 h -3.69807 v -12.7844 h 5.7292 l 7.33078,9.5719 h 0.0716 v -9.5719 h 3.69807 z m 0,0" id="path10" style="stroke-width:0.15564276"></path>
    <path class="cls-1" d="m 513.19554,-1392.8108 h -5.63738 l -7.42104,-9.5627 h -0.0732 v 9.5627 h -3.69807 v -12.7844 h 5.72922 l 7.32921,9.5719 h 0.0731 v -9.5719 h 3.69807 z m 0,0" id="path12" style="stroke-width:0.15564276"></path>
    <path class="cls-1" d="m 479.41329,-1392.6411 q -1.77433,0 -3.06305,-0.087 a 11.361921,11.361921 0 0 1 -2.1899,-0.3315 4.1634436,4.1634436 0 0 1 -1.46304,-0.6833 2.8856166,2.8856166 0 0 1 -0.87471,-1.1377 5.7323226,5.7323226 0 0 1 -0.41868,-1.6997 22.390766,22.390766 0 0 1 -0.10895,-2.3626 v -0.3736 a 21.830452,21.830452 0 0 1 0.11362,-2.3813 5.7276533,5.7276533 0 0 1 0.42802,-1.712 2.8965116,2.8965116 0 0 1 0.87782,-1.1331 4.1400972,4.1400972 0 0 1 1.4646,-0.674 11.414839,11.414839 0 0 1 2.1899,-0.3237 q 1.28872,-0.082 3.04437,-0.081 h 0.56809 q 1.47705,0 2.58678,0.064 a 12.954146,12.954146 0 0 1 1.90507,0.2319 4.6350411,4.6350411 0 0 1 1.31518,0.4591 2.3548748,2.3548748 0 0 1 0.82024,0.7425 2.8591573,2.8591573 0 0 1 0.41868,1.0785 8.1089874,8.1089874 0 0 1 0.11673,1.4662 v 0.4918 h -3.6218 v -0.1556 a 1.7883352,1.7883352 0 0 0 -0.13386,-0.7331 0.99144435,0.99144435 0 0 0 -0.5323,-0.4669 3.6576047,3.6576047 0 0 0 -1.11129,-0.2506 q -0.71439,-0.073 -1.88483,-0.073 h -0.31129 q -1.06304,0 -1.81323,0.036 a 6.7144282,6.7144282 0 0 0 -1.24515,0.1557 2.0902821,2.0902821 0 0 0 -0.79222,0.3502 1.3447534,1.3447534 0 0 0 -0.4358,0.6225 3.5066312,3.5066312 0 0 0 -0.18521,0.9697 c -0.0265,0.3844 -0.0405,0.8483 -0.0405,1.3883 v 0.2272 c 0,0.5292 0.014,0.9806 0.0405,1.3572 a 3.4085763,3.4085763 0 0 0 0.18521,0.951 1.3587612,1.3587612 0 0 0 0.4358,0.6226 2.115185,2.115185 0 0 0 0.79222,0.3502 6.8638452,6.8638452 0 0 0 1.24515,0.1556 q 0.75175,0.037 1.81323,0.037 h 0.31129 q 0.86382,0 1.4895,-0.032 a 9.8677507,9.8677507 0 0 0 1.05215,-0.1012 2.5618797,2.5618797 0 0 0 0.68482,-0.1898 1.0365807,1.0365807 0 0 0 0.39533,-0.3114 1.0147908,1.0147908 0 0 0 0.18522,-0.4373 3.3945684,3.3945684 0 0 0 0.0451,-0.5867 v -0.3565 h -4.89341 v -2.4669 h 8.47008 v 2.8405 a 9.5159977,9.5159977 0 0 1 -0.1214,1.6171 3.382117,3.382117 0 0 1 -0.43269,1.2016 2.577444,2.577444 0 0 1 -0.83735,0.8373 4.4700599,4.4700599 0 0 1 -1.33853,0.5292 12.073209,12.073209 0 0 1 -1.94243,0.277 q -1.12996,0.081 -2.63503,0.082 z m 0,0" id="path14" style="stroke-width:0.15564276"></path>
    <path class="cls-1" d="m 493.63903,-1392.7874 h -3.74787 v -12.6849 h 3.74787 z m 0,0" id="path16" style="stroke-width:0.15564276"></path>
    <path class="cls-1" d="m 330.71843,-1392.652 q -1.55643,0 -2.73153,-0.082 a 12.589942,12.589942 0 0 1 -2.02336,-0.2848 4.8140303,4.8140303 0 0 1 -1.41168,-0.5479 2.7642153,2.7642153 0 0 1 -0.89339,-0.8654 3.4941798,3.4941798 0 0 1 -0.46693,-1.2451 9.1113269,9.1113269 0 0 1 -0.13697,-1.6747 v -8.2647 h 3.77123 v 7.0491 c 0,0.4358 0.014,0.8093 0.0451,1.1222 a 2.6646039,2.6646039 0 0 0 0.18677,0.8 1.2856091,1.2856091 0 0 0 0.40467,0.5338 1.9502037,1.9502037 0 0 0 0.70039,0.3113 5.5144227,5.5144227 0 0 0 1.0755,0.1557 c 0.4249,0.025 0.93385,0.036 1.52063,0.036 h 0.31906 c 0.58833,0 1.0895,-0.012 1.52063,-0.041 a 5.9953587,5.9953587 0 0 0 1.07394,-0.1557 1.8505923,1.8505923 0 0 0 0.70039,-0.3112 1.3291891,1.3291891 0 0 0 0.40623,-0.5339 2.7019582,2.7019582 0 0 0 0.18677,-0.8 q 0.0451,-0.4669 0.0451,-1.1175 v -7.0491 h 3.76966 v 8.2724 a 9.63273,9.63273 0 0 1 -0.12762,1.6701 3.4241406,3.4241406 0 0 1 -0.45448,1.2452 2.7330867,2.7330867 0 0 1 -0.88405,0.8653 4.7486604,4.7486604 0 0 1 -1.40078,0.5479 12.641304,12.641304 0 0 1 -2.03426,0.2848 q -1.18443,0.084 -2.75954,0.082 z" id="path18" style="stroke-width:0.15564276"></path>
    <path class="cls-1" d="m 358.1598,-1392.8077 h -5.63583 l -7.42104,-9.5953 h -0.0731 v 9.5891 h -3.69652 v -12.8141 h 5.72766 l 7.32921,9.6063 h 0.0731 v -9.6063 h 3.69652 z m 0,0" id="path20" style="stroke-width:0.15564276"></path>
    <path class="cls-1" d="m 369.27269,-1399.1579 q 0.97277,0 1.55643,-0.061 a 2.0669357,2.0669357 0 0 0 0.87938,-0.2475 0.87159942,0.87159942 0 0 0 0.38599,-0.5245 3.5035184,3.5035184 0 0 0 0.0918,-0.8887 v -0.221 a 3.4521563,3.4521563 0 0 0 -0.0918,-0.8778 0.82801946,0.82801946 0 0 0 -0.39533,-0.5152 2.2116835,2.2116835 0 0 0 -0.88405,-0.2397 c -0.38443,-0.041 -0.89961,-0.061 -1.54242,-0.061 h -4.69885 v 3.6358 z m 6.71288,6.3502 h -3.72609 v -1.035 a 8.5603516,8.5603516 0 0 0 -0.0467,-0.965 1.9533165,1.9533165 0 0 0 -0.18989,-0.6864 1.1828849,1.1828849 0 0 0 -0.4109,-0.4513 2.071605,2.071605 0 0 0 -0.69572,-0.2615 7.0677371,7.0677371 0 0 0 -1.06615,-0.1245 q -0.63347,-0.033 -1.50663,-0.033 h -3.76966 v 3.5626 h -3.73542 v -12.8265 h 9.94401 a 14.245981,14.245981 0 0 1 2.57744,0.193 3.6887332,3.6887332 0 0 1 1.59223,0.649 2.3346413,2.3346413 0 0 1 0.80623,1.2063 6.5650112,6.5650112 0 0 1 0.22724,1.8537 v 0.4513 a 6.468513,6.468513 0 0 1 -0.11829,1.3199 2.8373674,2.8373674 0 0 1 -0.38133,0.9759 2.2505942,2.2505942 0 0 1 -0.68327,0.677 3.2513771,3.2513771 0 0 1 -1.0288,0.4047 v 0.073 a 5.6280419,5.6280419 0 0 1 1.10662,0.2802 1.492614,1.492614 0 0 1 0.67705,0.5074 2.0233558,2.0233558 0 0 1 0.33774,0.8778 8.7035425,8.7035425 0 0 1 0.0903,1.3899 z m 0,0" id="path22" style="stroke-width:0.15564276"></path>
    <path class="cls-1" d="m 392.36229,-1392.8077 h -13.93158 v -12.8203 h 13.71213 v 2.8343 h -9.97981 v 2.179 h 9.45218 v 2.6771 h -9.45218 v 2.2116 h 10.19926 z m 0,0" id="path24" style="stroke-width:0.15564276"></path>
    <path class="cls-1" d="m 404.95846,-1397.7773 -2.61324,-5.144 h -0.0918 l -2.59456,5.144 z m 6.60081,4.9805 h -4.07006 l -1.1751,-2.3004 h -7.99381 l -1.15643,2.3004 h -4.03426 l 6.88408,-12.8187 h 4.62571 z m 0,0" id="path26" style="stroke-width:0.15564276"></path>
    <path class="cls-1" d="m 425.28385,-1392.7983 h -12.34714 v -12.8188 h 3.76966 v 9.8367 h 8.57748 z m 0,0" id="path28" style="stroke-width:0.15564276"></path>
    <path class="cls-1" d="m 305.34087,-1395.5081 v 0 c -0.43424,2.0919 -2.36421,7.4615 -8.51988,10.3689 l -2.47161,-2.7797 -4.17122,4.193 a 15.393068,15.393068 0 0 1 -12.17438,-6.2444 5.9969152,5.9969152 0 0 0 1.36343,0.2568 c 0.68328,0.012 1.42258,-0.2381 1.42258,-1.3852 v -11.3153 a 1.867713,1.867713 0 0 0 -2.34243,-1.8677 c -1.93152,0.4452 -3.47394,5.2639 -3.47394,5.2639 a 15.321473,15.321473 0 0 1 5.30274,-11.7417 15.540929,15.540929 0 0 1 7.82417,-3.6093 c -2.10896,1.2015 -3.29341,3.1611 -3.29341,4.8047 0,2.6459 1.59379,2.3253 2.06538,1.9361 v 15.2717 a 2.4280269,2.4280269 0 0 0 0.31129,0.537 2.2552635,2.2552635 0 0 0 1.84437,0.9338 c 1.59533,0 3.66538,-1.821 3.66538,-1.821 v -12.3611 c 0,-1.2576 -0.94786,-2.7767 -1.89728,-3.2981 0,0 1.75721,-0.3113 3.11286,0.7269 v 0 a 11.615619,11.615619 0 0 1 0.81089,-0.8919 c 3.16422,-3.1051 6.14478,-3.9891 8.62728,-4.4312 v 0 c 0,0 -4.51364,3.5472 -4.51364,8.3067 0,3.5393 0.0918,12.1713 0.0918,12.1713 1.67472,1.6171 4.165,-0.7191 6.41559,-3.0242 z" id="path30" style="stroke-width:0.15564276"></path>
    <path class="cls-1" d="m 290.38205,-1424.3082 a 25.173659,25.173659 0 1 0 25.17366,25.1737 25.173659,25.173659 0 0 0 -25.17366,-25.1737 z m 0,49.3387 a 24.16665,24.16665 0 1 1 24.16665,-24.165 24.16665,24.16665 0 0 1 -24.16665,24.1666 z" id="path32" style="stroke-width:0.15564276"></path>
  </g>
</svg>
